#!OML:ASF E:\Style6\Style6.ASF
:FULLY-SPECIFIED
:DEGREES
2046
root 0.304917 18.3064 0.48695 9.33049 -6.49722 -4.07879
lowerback -4.96563 -0.992179 0.504961
upperback -0.0416346 -1.43693 2.86716
thorax 2.80382 -0.729927 2.56602
lowerneck -3.69851 1.75575 4.1218
upperneck 40.285 3.32656 -4.56272
head 14.7245 1.42185 -2.25092
rclavicle 3.54085e-014 -2.22639e-014
rhumerus -46.9329 -48.1832 -46.7497
rradius 27.8654
rwrist 38.9274
rhand -26.9523 26.7101
rfingers 7.12502
rthumb -0.374062 -3.26936
lclavicle 3.54085e-014 -2.22639e-014
lhumerus -39.2661 -28.3079 85.9579
lradius 41.4079
lwrist -6.74352
lhand 2.59605 11.6008
lfingers 7.12502
lthumb 28.0745 39.52
rfemur -6.70094 21.0052 20.0196
rtibia -2.38542e-015
rfoot -0.784338 -18.7893
rtoes -2.34026
lfemur -8.99709 -34.5669 -12.574
ltibia 14.6739
lfoot -19.0172 38.9395
ltoes 16.8589
2047
root 0.302884 18.3063 0.478485 9.28719 -6.38205 -4.06412
lowerback -4.96454 -0.974693 0.432282
upperback 0.00697844 -1.41037 2.85654
thorax 2.85372 -0.717992 2.59766
lowerneck -3.73478 1.79823 4.14756
upperneck 40.3201 3.397 -4.57683
head 14.7562 1.45553 -2.25293
rclavicle -1.11568e-014 4.57205e-015
rhumerus -47.5148 -48.7497 -46.2286
rradius 27.3287
rwrist 39.3214
rhand -26.7713 26.7055
rfingers 7.12502
rthumb -0.199197 -3.27414
lclavicle -1.11568e-014 4.57205e-015
lhumerus -37.1257 -24.895 84.5645
lradius 37.9625
lwrist -8.62451
lhand 0.278715 11.8852
lfingers 7.12502
lthumb 25.8573 40.1473
rfemur -6.66323 20.8904 20.0486
rtibia -1.98785e-015
rfoot -0.673507 -18.7811
rtoes -2.94976
lfemur -9.06008 -34.6178 -12.5301
ltibia 14.6952
lfoot -18.6804 38.9663
ltoes 16.3634
2048
root 0.302496 18.3039 0.470832 9.23183 -6.25428 -4.0515
lowerback -4.97201 -0.945703 0.412824
upperback 0.0484216 -1.37018 2.80541
thorax 2.89808 -0.69813 2.55835
lowerneck -3.79664 1.79858 4.22004
upperneck 40.44 3.39291 -4.58101
head 14.8324 1.46477 -2.27127
rclavicle 9.54166e-015 1.07344e-014
rhumerus -48.0536 -49.1885 -45.8391
rradius 26.7822
rwrist 39.4396
rhand -26.6249 26.7039
rfingers 7.12502
rthumb -0.0577742 -3.27587
lclavicle 9.54166e-015 1.07344e-014
lhumerus -35.0214 -21.304 83.174
lradius 34.3267
lwrist -10.499
lhand -2.45503 12.2872
lfingers 7.12502
lthumb 23.2369 40.9052
rfemur -6.62257 20.7623 20.077
rtibia 1.23246e-014
rfoot -0.605403 -18.8009
rtoes -3.06542
lfemur -9.04431 -34.645 -12.5228
ltibia 14.6605
lfoot -18.4224 38.9313
ltoes 16.0947
2049
root 0.301231 18.3025 0.460189 9.16036 -6.14559 -3.99104
lowerback -4.90912 -0.925956 0.335162
upperback 0.0658046 -1.33611 2.73002
thorax 2.8791 -0.681646 2.52735
lowerneck -3.84417 1.80582 4.29516
upperneck 40.5596 3.38636 -4.55376
head 14.9049 1.47701 -2.27724
rclavicle -7.70291e-016 -2.66371e-014
rhumerus -48.7522 -49.8067 -45.2407
rradius 26.2318
rwrist 39.7098
rhand -26.3003 26.9462
rfingers 7.12502
rthumb 0.255702 -3.03335
lclavicle -7.70291e-016 -2.66371e-014
lhumerus -33.0757 -17.1516 81.663
lradius 30.7409
lwrist -12.7563
lhand -5.13629 12.7867
lfingers 7.12502
lthumb 20.6625 41.7068
rfemur -6.57778 20.6444 20.0515
rtibia 1.82882e-014
rfoot -0.570998 -18.7882
rtoes -3.16123
lfemur -9.03638 -34.6721 -12.5756
ltibia 14.6583
lfoot -18.1706 38.9337
ltoes 15.5533
2050
root 0.298805 18.3028 0.449612 9.0625 -6.03221 -3.91914
lowerback -4.79957 -0.936834 0.212946
upperback 0.0806683 -1.34011 2.66995
thorax 2.83436 -0.684824 2.53512
lowerneck -3.89288 1.84779 4.3386
upperneck 40.6695 3.42425 -4.49394
head 14.9747 1.50716 -2.25749
rclavicle 3.95085e-015 -6.95746e-015
rhumerus -49.5088 -50.4382 -44.5674
rradius 25.7863
rwrist 40.1109
rhand -25.7844 27.3152
rfingers 7.12502
rthumb 0.754001 -2.66316
lclavicle 3.95085e-015 -6.95746e-015
lhumerus -31.3852 -12.2393 79.9896
lradius 27.3887
lwrist -15.3912
lhand -7.78198 13.3792
lfingers 7.12502
lthumb 18.1186 42.5553
rfemur -6.48747 20.5216 20.0366
rtibia -7.95139e-015
rfoot -0.553344 -18.7705
rtoes -3.31318
lfemur -9.09556 -34.7263 -12.6375
ltibia 14.8228
lfoot -18.2615 38.8238
ltoes 15.6131
2051
root 0.296952 18.3044 0.438157 9.05134 -5.8813 -4.02294
lowerback -4.69197 -0.973409 0.283037
upperback 0.0458224 -1.38973 2.66218
thorax 2.73828 -0.707977 2.4858
lowerneck -3.90774 1.90309 4.38982
upperneck 40.7817 3.49961 -4.48568
head 15.0422 1.548 -2.25655
rclavicle -5.76476e-015 3.97569e-016
rhumerus -50.0373 -50.7708 -44.2195
rradius 25.423
rwrist 40.3603
rhand -25.2969 27.4043
rfingers 7.12502
rthumb 1.22484 -2.57194
lclavicle -5.76476e-015 3.97569e-016
lhumerus -29.968 -6.65856 78.1386
lradius 24.2016
lwrist -18.2144
lhand -10.4074 14.0113
lfingers 7.12502
lthumb 15.5913 43.4029
rfemur -6.48131 20.3909 20.1846
rtibia 2.3059e-014
rfoot -0.59954 -18.7556
rtoes -3.0162
lfemur -9.27875 -34.6685 -12.4551
ltibia 15.0498
lfoot -18.4429 38.5671
ltoes 16.0556
2052
root 0.294709 18.3059 0.421842 9.13809 -5.65502 -4.35988
lowerback -4.52119 -1.0352 0.527851
upperback -0.0848506 -1.48189 2.78468
thorax 2.5088 -0.75036 2.47189
lowerneck -3.78937 1.9705 4.36432
upperneck 40.8672 3.62459 -4.51353
head 15.0678 1.59575 -2.25037
rclavicle -7.52897e-015 -1.23246e-014
rhumerus -50.3194 -50.7416 -44.1111
rradius 25.0838
rwrist 40.4112
rhand -25.0106 27.1926
rfingers 7.12502
rthumb 1.50132 -2.78191
lclavicle -7.52897e-015 -1.23246e-014
lhumerus -28.8812 -0.241471 76.1358
lradius 21.1214
lwrist -21.5897
lhand -13.1076 14.9143
lfingers 7.12502
lthumb 12.9895 44.4899
rfemur -6.58759 20.2264 20.5693
rtibia 1.90833e-014
rfoot -0.613791 -18.7824
rtoes -2.51416
lfemur -9.60183 -34.4232 -11.9224
ltibia 15.2524
lfoot -18.3154 38.1497
ltoes 16.1593
2053
root 0.292595 18.3061 0.410688 9.11345 -5.54517 -4.47134
lowerback -4.39673 -1.06109 0.543503
upperback -0.131495 -1.5146 2.83797
thorax 2.39334 -0.766367 2.51844
lowerneck -3.66497 2.02962 4.325
upperneck 40.866 3.73482 -4.53173
head 15.0458 1.63681 -2.23701
rclavicle 3.85394e-014 -1.70955e-014
rhumerus -50.3803 -50.6075 -44.2574
rradius 24.8501
rwrist 40.3434
rhand -24.6565 26.7734
rfingers 7.12502
rthumb 1.84335 -3.19833
lclavicle 3.85394e-014 -1.70955e-014
lhumerus -28.1477 6.75065 73.8979
lradius 18.4415
lwrist -25.421
lhand -15.5166 16.1903
lfingers 7.12502
lthumb 10.6665 45.8995
rfemur -6.58821 20.1373 20.723
rtibia -7.95139e-015
rfoot -0.56399 -18.7913
rtoes -2.79042
lfemur -9.77428 -34.3814 -11.7407
ltibia 15.4723
lfoot -18.3658 37.9933
ltoes 15.9715
2054
root 0.291811 18.3054 0.404512 9.03563 -5.50821 -4.41766
lowerback -4.42838 -1.00989 0.507469
upperback -0.0638742 -1.44444 2.74448
thorax 2.47624 -0.731625 2.44566
lowerneck -3.65882 2.03349 4.33592
upperneck 40.832 3.70879 -4.43978
head 15.0232 1.63967 -2.20183
rclavicle -3.2551e-015 1.49089e-014
rhumerus -50.419 -50.5589 -44.5828
rradius 24.7479
rwrist 40.0695
rhand -24.2673 26.4238
rfingers 7.12502
rthumb 2.21925 -3.54439
lclavicle -3.2551e-015 1.49089e-014
lhumerus -27.7393 13.8805 71.438
lradius 16.2557
lwrist -29.5071
lhand -17.2042 17.8774
lfingers 7.12502
lthumb 9.03833 47.6637
rfemur -6.52528 20.0901 20.6912
rtibia -5.1684e-015
rfoot -0.636221 -18.7904
rtoes -2.14334
lfemur -9.81075 -34.3525 -11.8271
ltibia 15.6442
lfoot -17.9829 38.0518
ltoes 14.8069
2055
root 0.291614 18.3024 0.398394 9.0041 -5.42834 -4.47349
lowerback -4.50247 -0.963766 0.599115
upperback 0.00882065 -1.38937 2.67963
thorax 2.58663 -0.70307 2.32913
lowerneck -3.7486 2.0324 4.38025
upperneck 40.8585 3.68831 -4.40226
head 15.0563 1.64215 -2.19645
rclavicle 1.65861e-014 -3.17062e-014
rhumerus -50.3477 -50.483 -45.0278
rradius 24.6333
rwrist 39.6613
rhand -23.9377 26.123
rfingers 7.12502
rthumb 2.53753 -3.84161
lclavicle 1.65861e-014 -3.17062e-014
lhumerus -27.835 21.0041 68.8381
lradius 14.4704
lwrist -33.6509
lhand -18.3888 19.8894
lfingers 7.12502
lthumb 7.89511 49.722
rfemur -6.4842 20.0204 20.7788
rtibia -1.63003e-014
rfoot -0.686231 -18.7873
rtoes -1.91233
lfemur -9.81957 -34.2975 -11.7677
ltibia 15.6834
lfoot -17.5664 38.0664
ltoes 13.4089
2056
root 0.292017 18.2997 0.391585 8.95584 -5.31191 -4.48701
lowerback -4.47597 -0.980335 0.589799
upperback 0.0379325 -1.41076 2.66521
thorax 2.60239 -0.713902 2.31823
lowerneck -3.82081 2.06783 4.42212
upperneck 40.9171 3.77582 -4.50413
head 15.113 1.67326 -2.23724
rclavicle -1.57413e-014 3.00165e-014
rhumerus -50.1161 -50.2533 -45.5575
rradius 24.5177
rwrist 39.3076
rhand -23.4231 25.8603
rfingers 7.12502
rthumb 3.03453 -4.09787
lclavicle -1.57413e-014 3.00165e-014
lhumerus -28.7191 28.1922 65.9438
lradius 13.1852
lwrist -37.8698
lhand -19.7508 21.4277
lfingers 7.12502
lthumb 6.58041 51.3055
rfemur -6.4277 19.9075 20.8328
rtibia -3.18055e-015
rfoot -0.746474 -18.7971
rtoes -1.64851
lfemur -9.8132 -34.357 -11.738
ltibia 15.6616
lfoot -17.3513 38.0644
ltoes 12.5428
2057
root 0.291658 18.2994 0.385518 8.88928 -5.21349 -4.52854
lowerback -4.36441 -0.992779 0.603647
upperback 0.0251219 -1.4247 2.64601
thorax 2.52622 -0.720333 2.29151
lowerneck -3.80873 2.10915 4.5122
upperneck 40.9352 3.87207 -4.62607
head 15.132 1.71383 -2.29377
rclavicle 9.18137e-015 1.08338e-014
rhumerus -50.0198 -50.058 -45.9806
rradius 24.4695
rwrist 39.2426
rhand -23.0345 25.5346
rfingers 7.12502
rthumb 3.40978 -4.41786
lclavicle 9.18137e-015 1.08338e-014
lhumerus -30.2464 34.3565 63.0356
lradius 12.5962
lwrist -41.0461
lhand -20.9144 22.4727
lfingers 7.12502
lthumb 5.45704 52.3825
rfemur -6.34744 19.8163 20.9195
rtibia -9.54166e-015
rfoot -0.793796 -18.7933
rtoes -1.49064
lfemur -9.79872 -34.4882 -11.6835
ltibia 15.6698
lfoot -17.1257 38.1107
ltoes 12.1108
